<mxfile host="app.diagrams.net" modified="2021-06-20T10:36:37.359Z" agent="5.0 (Windows NT 10.0; Win64; x64) AppleWebKit/537.36 (KHTML, like Gecko) Chrome/91.0.4472.106 Safari/537.36" etag="b49I260rBDbwg8jSwlC0" version="14.8.0" type="github">
  <diagram id="BXtNbef0zu7mDP0FYzVf" name="Page-1">
    <mxGraphModel dx="782" dy="436" grid="1" gridSize="10" guides="1" tooltips="1" connect="1" arrows="1" fold="1" page="1" pageScale="1" pageWidth="850" pageHeight="1100" math="0" shadow="0">
      <root>
        <mxCell id="0" />
        <mxCell id="1" parent="0" />
        <mxCell id="-_2ivDZEhXRZm4WF70Td-1" value="&lt;font style=&quot;font-size: 13px&quot; face=&quot;B Zar&quot;&gt;کاربر&lt;/font&gt;" style="shape=umlActor;verticalLabelPosition=bottom;verticalAlign=top;html=1;outlineConnect=0;" parent="1" vertex="1">
          <mxGeometry x="230" y="170" width="30" height="60" as="geometry" />
        </mxCell>
        <mxCell id="-_2ivDZEhXRZm4WF70Td-2" value="&lt;font face=&quot;B Zar&quot; style=&quot;font-size: 13px&quot;&gt;سیستم&lt;br&gt;&amp;nbsp;(صفحه نمایش)&lt;/font&gt;" style="rounded=0;whiteSpace=wrap;html=1;align=center;fillColor=#BFBFBF;" parent="1" vertex="1">
          <mxGeometry x="550" y="170" width="120" height="60" as="geometry" />
        </mxCell>
        <mxCell id="-_2ivDZEhXRZm4WF70Td-3" value="&lt;font face=&quot;Times New Roman&quot; style=&quot;font-size: 13px&quot;&gt;User&lt;/font&gt;" style="rounded=0;whiteSpace=wrap;html=1;fillColor=#BFBFBF;" parent="1" vertex="1">
          <mxGeometry x="550" y="360" width="120" height="60" as="geometry" />
        </mxCell>
        <mxCell id="-_2ivDZEhXRZm4WF70Td-4" value="" style="endArrow=none;html=1;strokeColor=#28408E;" parent="1" edge="1">
          <mxGeometry width="50" height="50" relative="1" as="geometry">
            <mxPoint x="280" y="200" as="sourcePoint" />
            <mxPoint x="550" y="199.5" as="targetPoint" />
          </mxGeometry>
        </mxCell>
        <mxCell id="-_2ivDZEhXRZm4WF70Td-5" value="" style="endArrow=none;html=1;exitX=0.5;exitY=0;exitDx=0;exitDy=0;entryX=0.5;entryY=1;entryDx=0;entryDy=0;strokeColor=#28408E;" parent="1" source="-_2ivDZEhXRZm4WF70Td-3" target="-_2ivDZEhXRZm4WF70Td-2" edge="1">
          <mxGeometry width="50" height="50" relative="1" as="geometry">
            <mxPoint x="380" y="270" as="sourcePoint" />
            <mxPoint x="430" y="220" as="targetPoint" />
          </mxGeometry>
        </mxCell>
        <mxCell id="-_2ivDZEhXRZm4WF70Td-6" value="&lt;font face=&quot;Times New Roman&quot; style=&quot;font-size: 13px&quot;&gt;1: Complete profile info() -&amp;gt;&lt;/font&gt;" style="text;html=1;align=center;verticalAlign=middle;resizable=0;points=[];autosize=1;" parent="1" vertex="1">
          <mxGeometry x="320" y="170" width="160" height="20" as="geometry" />
        </mxCell>
        <mxCell id="-_2ivDZEhXRZm4WF70Td-7" value="&lt;font face=&quot;Times New Roman&quot; style=&quot;font-size: 13px&quot;&gt;2: Enter height and weight () -&amp;gt;&lt;/font&gt;" style="text;html=1;align=center;verticalAlign=middle;resizable=0;points=[];autosize=1;" parent="1" vertex="1">
          <mxGeometry x="320" y="150" width="180" height="20" as="geometry" />
        </mxCell>
        <mxCell id="-_2ivDZEhXRZm4WF70Td-9" value="&lt;font face=&quot;Times New Roman&quot; style=&quot;font-size: 13px&quot;&gt;4: Save in DB() -&amp;gt;&lt;/font&gt;" style="text;html=1;align=center;verticalAlign=middle;resizable=0;points=[];autosize=1;rotation=90;" parent="1" vertex="1">
          <mxGeometry x="570" y="290" width="110" height="20" as="geometry" />
        </mxCell>
        <mxCell id="-_2ivDZEhXRZm4WF70Td-11" value="&lt;font face=&quot;Times New Roman&quot; style=&quot;font-size: 13px&quot;&gt;3: Click approve () -&amp;gt;&lt;/font&gt;" style="text;html=1;align=center;verticalAlign=middle;resizable=0;points=[];autosize=1;" parent="1" vertex="1">
          <mxGeometry x="320" y="130" width="130" height="20" as="geometry" />
        </mxCell>
      </root>
    </mxGraphModel>
  </diagram>
</mxfile>
